<mxfile host="65bd71144e">
    <diagram id="xPSQ8G7x_Wnx7Jl7TAra" name="Page-1">
        <mxGraphModel dx="908" dy="740" grid="1" gridSize="10" guides="1" tooltips="1" connect="1" arrows="1" fold="1" page="1" pageScale="1" pageWidth="850" pageHeight="1100" math="0" shadow="0">
            <root>
                <mxCell id="0"/>
                <mxCell id="1" parent="0"/>
                <mxCell id="46" value="" style="rounded=0;whiteSpace=wrap;html=1;fillColor=none;dashed=1;dashPattern=1 4;" vertex="1" parent="1">
                    <mxGeometry x="1320" y="150" width="340" height="580" as="geometry"/>
                </mxCell>
                <mxCell id="45" value="" style="rounded=0;whiteSpace=wrap;html=1;fillColor=none;dashed=1;dashPattern=1 4;" vertex="1" parent="1">
                    <mxGeometry x="920" y="150" width="320" height="580" as="geometry"/>
                </mxCell>
                <mxCell id="3" value="Mod 1" style="whiteSpace=wrap;html=1;aspect=fixed;fontColor=#000000;fillColor=#FFFFFF;" parent="1" vertex="1">
                    <mxGeometry x="1030" y="210" width="80" height="80" as="geometry"/>
                </mxCell>
                <mxCell id="6" value="Input system" style="ellipse;shape=cloud;whiteSpace=wrap;html=1;" vertex="1" parent="1">
                    <mxGeometry x="1440" y="600" width="120" height="80" as="geometry"/>
                </mxCell>
                <mxCell id="7" value="" style="endArrow=classic;html=1;exitX=0.55;exitY=0.95;exitDx=0;exitDy=0;exitPerimeter=0;entryX=0.4;entryY=0.1;entryDx=0;entryDy=0;entryPerimeter=0;" edge="1" parent="1" source="41" target="6">
                    <mxGeometry relative="1" as="geometry">
                        <mxPoint x="1350" y="705" as="sourcePoint"/>
                        <mxPoint x="1510" y="705" as="targetPoint"/>
                    </mxGeometry>
                </mxCell>
                <mxCell id="8" value="keys callback" style="edgeLabel;resizable=0;html=1;align=center;verticalAlign=middle;" connectable="0" vertex="1" parent="7">
                    <mxGeometry relative="1" as="geometry"/>
                </mxCell>
                <mxCell id="9" value="Sends" style="edgeLabel;resizable=0;html=1;align=left;verticalAlign=bottom;" connectable="0" vertex="1" parent="7">
                    <mxGeometry x="-1" relative="1" as="geometry">
                        <mxPoint x="-36" y="14" as="offset"/>
                    </mxGeometry>
                </mxCell>
                <mxCell id="10" value="KeyInput class" style="shape=parallelogram;perimeter=parallelogramPerimeter;whiteSpace=wrap;html=1;fixedSize=1;" vertex="1" parent="1">
                    <mxGeometry x="1010" y="620" width="120" height="60" as="geometry"/>
                </mxCell>
                <mxCell id="17" value="" style="endArrow=classic;html=1;exitX=0.5;exitY=0;exitDx=0;exitDy=0;entryX=0.5;entryY=1;entryDx=0;entryDy=0;" edge="1" parent="1" source="10" target="24">
                    <mxGeometry relative="1" as="geometry">
                        <mxPoint x="1140" y="460" as="sourcePoint"/>
                        <mxPoint x="810" y="650" as="targetPoint"/>
                    </mxGeometry>
                </mxCell>
                <mxCell id="18" value="key state" style="edgeLabel;resizable=0;html=1;align=center;verticalAlign=middle;" connectable="0" vertex="1" parent="17">
                    <mxGeometry relative="1" as="geometry"/>
                </mxCell>
                <mxCell id="19" value="Sends" style="edgeLabel;resizable=0;html=1;align=left;verticalAlign=bottom;" connectable="0" vertex="1" parent="17">
                    <mxGeometry x="-1" relative="1" as="geometry"/>
                </mxCell>
                <mxCell id="20" value="Reads" style="edgeLabel;resizable=0;html=1;align=right;verticalAlign=bottom;" connectable="0" vertex="1" parent="17">
                    <mxGeometry x="1" relative="1" as="geometry"/>
                </mxCell>
                <mxCell id="21" value="" style="endArrow=classic;html=1;exitX=1;exitY=0.75;exitDx=0;exitDy=0;entryX=1;entryY=0.5;entryDx=0;entryDy=0;" edge="1" parent="1" source="3" target="24">
                    <mxGeometry relative="1" as="geometry">
                        <mxPoint x="1120" y="260" as="sourcePoint"/>
                        <mxPoint x="1190" y="540" as="targetPoint"/>
                        <Array as="points">
                            <mxPoint x="1180" y="270"/>
                            <mxPoint x="1180" y="450"/>
                        </Array>
                    </mxGeometry>
                </mxCell>
                <mxCell id="22" value="action-key mappings" style="edgeLabel;resizable=0;html=1;align=center;verticalAlign=middle;" connectable="0" vertex="1" parent="21">
                    <mxGeometry relative="1" as="geometry">
                        <mxPoint y="4" as="offset"/>
                    </mxGeometry>
                </mxCell>
                <mxCell id="23" value="Defines" style="edgeLabel;resizable=0;html=1;align=left;verticalAlign=bottom;" connectable="0" vertex="1" parent="21">
                    <mxGeometry x="-1" relative="1" as="geometry"/>
                </mxCell>
                <mxCell id="24" value="LUT" style="shape=parallelogram;perimeter=parallelogramPerimeter;whiteSpace=wrap;html=1;fixedSize=1;" vertex="1" parent="1">
                    <mxGeometry x="1010" y="420" width="120" height="60" as="geometry"/>
                </mxCell>
                <mxCell id="29" value="" style="endArrow=classic;html=1;exitX=0.5;exitY=0;exitDx=0;exitDy=0;entryX=0.5;entryY=1;entryDx=0;entryDy=0;" edge="1" parent="1" source="24" target="3">
                    <mxGeometry relative="1" as="geometry">
                        <mxPoint x="1000" y="410" as="sourcePoint"/>
                        <mxPoint x="1010" y="450" as="targetPoint"/>
                    </mxGeometry>
                </mxCell>
                <mxCell id="30" value="key to action" style="edgeLabel;resizable=0;html=1;align=center;verticalAlign=middle;" connectable="0" vertex="1" parent="29">
                    <mxGeometry relative="1" as="geometry"/>
                </mxCell>
                <mxCell id="31" value="Translates" style="edgeLabel;resizable=0;html=1;align=left;verticalAlign=bottom;" connectable="0" vertex="1" parent="29">
                    <mxGeometry x="-1" relative="1" as="geometry"/>
                </mxCell>
                <mxCell id="32" value="" style="endArrow=classic;html=1;exitX=0;exitY=0.75;exitDx=0;exitDy=0;entryX=0;entryY=0;entryDx=0;entryDy=0;" edge="1" parent="1" source="3" target="24">
                    <mxGeometry relative="1" as="geometry">
                        <mxPoint x="820" y="460" as="sourcePoint"/>
                        <mxPoint x="980" y="460" as="targetPoint"/>
                        <Array as="points">
                            <mxPoint x="970" y="270"/>
                            <mxPoint x="970" y="429"/>
                        </Array>
                    </mxGeometry>
                </mxCell>
                <mxCell id="33" value="action" style="edgeLabel;resizable=0;html=1;align=center;verticalAlign=middle;" connectable="0" vertex="1" parent="32">
                    <mxGeometry relative="1" as="geometry"/>
                </mxCell>
                <mxCell id="34" value="Queries" style="edgeLabel;resizable=0;html=1;align=left;verticalAlign=bottom;" connectable="0" vertex="1" parent="32">
                    <mxGeometry x="-1" relative="1" as="geometry">
                        <mxPoint x="-50" as="offset"/>
                    </mxGeometry>
                </mxCell>
                <mxCell id="36" value="" style="endArrow=classic;html=1;exitX=0.25;exitY=1;exitDx=0;exitDy=0;entryX=0.55;entryY=0.95;entryDx=0;entryDy=0;entryPerimeter=0;" edge="1" parent="1" source="10" target="6">
                    <mxGeometry relative="1" as="geometry">
                        <mxPoint x="1070" y="780" as="sourcePoint"/>
                        <mxPoint x="1600" y="760" as="targetPoint"/>
                        <Array as="points">
                            <mxPoint x="1040" y="790"/>
                            <mxPoint x="1506" y="790"/>
                        </Array>
                    </mxGeometry>
                </mxCell>
                <mxCell id="37" value="keys used by Mod 1" style="edgeLabel;resizable=0;html=1;align=center;verticalAlign=middle;" connectable="0" vertex="1" parent="36">
                    <mxGeometry relative="1" as="geometry"/>
                </mxCell>
                <mxCell id="38" value="Subscribes" style="edgeLabel;resizable=0;html=1;align=left;verticalAlign=bottom;" connectable="0" vertex="1" parent="36">
                    <mxGeometry x="-1" relative="1" as="geometry">
                        <mxPoint x="-60" y="20" as="offset"/>
                    </mxGeometry>
                </mxCell>
                <mxCell id="40" value="Registers KeyInput instance" style="edgeLabel;resizable=0;html=1;align=left;verticalAlign=bottom;" connectable="0" vertex="1" parent="1">
                    <mxGeometry x="1510" y="700" as="geometry"/>
                </mxCell>
                <mxCell id="41" value="GLFW" style="ellipse;shape=cloud;whiteSpace=wrap;html=1;" vertex="1" parent="1">
                    <mxGeometry x="1420" y="400" width="120" height="80" as="geometry"/>
                </mxCell>
                <mxCell id="42" value="Engine" style="text;strokeColor=none;fillColor=none;html=1;fontSize=24;fontStyle=1;verticalAlign=middle;align=center;" vertex="1" parent="1">
                    <mxGeometry x="1430" y="160" width="100" height="40" as="geometry"/>
                </mxCell>
                <mxCell id="44" value="Module" style="text;strokeColor=none;fillColor=none;html=1;fontSize=24;fontStyle=1;verticalAlign=middle;align=center;" vertex="1" parent="1">
                    <mxGeometry x="1020" y="160" width="100" height="40" as="geometry"/>
                </mxCell>
                <mxCell id="51" value="" style="endArrow=classic;html=1;exitX=0.31;exitY=0.8;exitDx=0;exitDy=0;exitPerimeter=0;entryX=0.5;entryY=1;entryDx=0;entryDy=0;" edge="1" parent="1" source="6" target="10">
                    <mxGeometry relative="1" as="geometry">
                        <mxPoint x="1300" y="830" as="sourcePoint"/>
                        <mxPoint x="1460" y="830" as="targetPoint"/>
                        <Array as="points">
                            <mxPoint x="1477" y="760"/>
                            <mxPoint x="1070" y="760"/>
                        </Array>
                    </mxGeometry>
                </mxCell>
                <mxCell id="52" value="key state for subscribed keys" style="edgeLabel;resizable=0;html=1;align=center;verticalAlign=middle;dashed=1;dashPattern=1 4;fillColor=none;" connectable="0" vertex="1" parent="51">
                    <mxGeometry relative="1" as="geometry"/>
                </mxCell>
                <mxCell id="53" value="Sends" style="edgeLabel;resizable=0;html=1;align=left;verticalAlign=bottom;dashed=1;dashPattern=1 4;fillColor=none;" connectable="0" vertex="1" parent="51">
                    <mxGeometry x="-1" relative="1" as="geometry">
                        <mxPoint x="-47" y="26" as="offset"/>
                    </mxGeometry>
                </mxCell>
                <mxCell id="54" value="Stores" style="edgeLabel;resizable=0;html=1;align=right;verticalAlign=bottom;dashed=1;dashPattern=1 4;fillColor=none;" connectable="0" vertex="1" parent="51">
                    <mxGeometry x="1" relative="1" as="geometry">
                        <mxPoint x="40" y="20" as="offset"/>
                    </mxGeometry>
                </mxCell>
                <mxCell id="55" value="" style="endArrow=classic;html=1;exitX=0;exitY=0.75;exitDx=0;exitDy=0;entryX=0;entryY=0;entryDx=0;entryDy=0;" edge="1" parent="1" source="24" target="10">
                    <mxGeometry relative="1" as="geometry">
                        <mxPoint x="900" y="570" as="sourcePoint"/>
                        <mxPoint x="1060" y="570" as="targetPoint"/>
                        <Array as="points">
                            <mxPoint x="970" y="464"/>
                            <mxPoint x="970" y="629"/>
                        </Array>
                    </mxGeometry>
                </mxCell>
                <mxCell id="56" value="action to key" style="edgeLabel;resizable=0;html=1;align=center;verticalAlign=middle;dashed=1;dashPattern=1 4;fillColor=none;" connectable="0" vertex="1" parent="55">
                    <mxGeometry relative="1" as="geometry"/>
                </mxCell>
                <mxCell id="57" value="Translates" style="edgeLabel;resizable=0;html=1;align=left;verticalAlign=bottom;dashed=1;dashPattern=1 4;fillColor=none;" connectable="0" vertex="1" parent="55">
                    <mxGeometry x="-1" relative="1" as="geometry">
                        <mxPoint x="-35" y="36" as="offset"/>
                    </mxGeometry>
                </mxCell>
                <mxCell id="59" value="Mod 2" style="whiteSpace=wrap;html=1;aspect=fixed;fontColor=#000000;fillColor=#FFFFFF;" vertex="1" parent="1">
                    <mxGeometry x="1870" y="610" width="80" height="80" as="geometry"/>
                </mxCell>
                <mxCell id="60" value="" style="endArrow=classic;html=1;exitX=0.75;exitY=1;exitDx=0;exitDy=0;entryX=0.55;entryY=0.95;entryDx=0;entryDy=0;entryPerimeter=0;" edge="1" parent="1" source="59" target="6">
                    <mxGeometry relative="1" as="geometry">
                        <mxPoint x="2050" y="750" as="sourcePoint"/>
                        <mxPoint x="2210" y="750" as="targetPoint"/>
                        <Array as="points">
                            <mxPoint x="1930" y="790"/>
                            <mxPoint x="1506" y="790"/>
                        </Array>
                    </mxGeometry>
                </mxCell>
                <mxCell id="61" value="keys used by Mod 2" style="edgeLabel;resizable=0;html=1;align=center;verticalAlign=middle;dashed=1;dashPattern=1 4;fillColor=none;" connectable="0" vertex="1" parent="60">
                    <mxGeometry relative="1" as="geometry"/>
                </mxCell>
                <mxCell id="62" value="Subscribes" style="edgeLabel;resizable=0;html=1;align=left;verticalAlign=bottom;dashed=1;dashPattern=1 4;fillColor=none;" connectable="0" vertex="1" parent="60">
                    <mxGeometry x="-1" relative="1" as="geometry">
                        <mxPoint x="10" y="20" as="offset"/>
                    </mxGeometry>
                </mxCell>
                <mxCell id="64" value="" style="endArrow=classic;html=1;exitX=0.8;exitY=0.8;exitDx=0;exitDy=0;exitPerimeter=0;entryX=0.25;entryY=1;entryDx=0;entryDy=0;" edge="1" parent="1" source="6" target="59">
                    <mxGeometry relative="1" as="geometry">
                        <mxPoint x="1780" y="850" as="sourcePoint"/>
                        <mxPoint x="1940" y="850" as="targetPoint"/>
                        <Array as="points">
                            <mxPoint x="1536" y="760"/>
                            <mxPoint x="1890" y="760"/>
                        </Array>
                    </mxGeometry>
                </mxCell>
                <mxCell id="65" value="key state for subscribed keys" style="edgeLabel;resizable=0;html=1;align=center;verticalAlign=middle;dashed=1;dashPattern=1 4;fillColor=none;" connectable="0" vertex="1" parent="64">
                    <mxGeometry relative="1" as="geometry"/>
                </mxCell>
                <mxCell id="66" value="Sends" style="edgeLabel;resizable=0;html=1;align=left;verticalAlign=bottom;dashed=1;dashPattern=1 4;fillColor=none;" connectable="0" vertex="1" parent="64">
                    <mxGeometry x="-1" relative="1" as="geometry">
                        <mxPoint y="16" as="offset"/>
                    </mxGeometry>
                </mxCell>
                <mxCell id="67" value="Stores" style="edgeLabel;resizable=0;html=1;align=right;verticalAlign=bottom;dashed=1;dashPattern=1 4;fillColor=none;" connectable="0" vertex="1" parent="64">
                    <mxGeometry x="1" relative="1" as="geometry">
                        <mxPoint x="-10" y="20" as="offset"/>
                    </mxGeometry>
                </mxCell>
            </root>
        </mxGraphModel>
    </diagram>
</mxfile>